<svg width="160" height="60" xmlns="http://www.w3.org/2000/svg">
 <style type="text/css">.st0{fill:#EDEDED;}
	.st1{fill:#FFFFFF;}
	.st2{fill:#B3B3B3;}
	.st3{fill:#FFFFFF;stroke:#808080;stroke-miterlimit:10;}
	.st4{fill:none;stroke:#808080;stroke-miterlimit:10;}
	.st5{fill:#DDA300;}
	.st6{fill:#0071BC;}
	.st7{fill:#1E120D;}
	.st8{fill:none;stroke:#1E120D;stroke-width:0.8588;stroke-miterlimit:10;}
	.st9{fill-rule:evenodd;clip-rule:evenodd;fill:#1E120D;}
	.st10{opacity:0.2;}
	.st11{fill:#0071BC;stroke:#FFFFFF;stroke-width:5;stroke-miterlimit:10;}
	.st12{fill:#CCCCCC;}
	.st13{fill:#999999;}
	.st14{fill:none;stroke:#CCCCCC;stroke-width:1.1296;stroke-miterlimit:10;}
	.st15{fill:#666666;}
	.st16{display:none;}
	.st17{display:inline;}
	.st18{opacity:0.5;fill:none;stroke:#FF00FF;stroke-width:0.3;stroke-miterlimit:10;}
	.st19{opacity:0.5;fill:none;stroke:#00FFFF;stroke-width:0.3;stroke-miterlimit:10;}</style>

 <g>
  <title>background</title>
  <rect fill="none" id="canvas_background" height="62" width="162" y="-1" x="-1"/>
 </g>
 <g>
  <title>Layer 1</title>
  <g stroke="null" id="Layer_1">
   <g stroke="null" id="svg_1">
    <g stroke="null" id="svg_2">
     <g stroke="null" id="svg_3">
      <path fill="#ffffff" stroke="null" id="svg_4" d="m32.30047,39.185545l1.226209,-13.086256c0.122621,-1.258294 0.245242,-2.264929 0.245242,-3.271564c0,-3.271564 -0.613105,-5.536493 -1.716693,-6.543128c-1.103588,-1.509953 -2.69766,-2.01327 -4.782215,-2.01327c-1.594072,0 -2.942902,0.251659 -4.04649,1.258294c-1.103588,0.754976 -1.961934,2.01327 -2.69766,3.523223c-0.613105,1.509953 -1.226209,3.774882 -1.471451,6.291469l5.272699,0c0,-0.251659 0,-0.503318 0,-0.754976c0.122621,-1.006635 0.367863,-1.761611 0.735725,-2.264929c0.490484,-0.503318 0.980967,-0.754976 1.716693,-0.754976c0.980967,0 1.594072,0.754976 1.594072,2.516588c-0.122621,1.006635 -0.735725,2.01327 -1.839314,2.516588c-1.103588,0.503318 -2.329797,1.006635 -3.678627,1.761611c-1.34883,0.503318 -2.452418,1.509953 -3.556006,2.768247c-0.980967,1.258294 -1.716693,3.271564 -1.961934,6.039811c0,0.754976 -0.122621,1.258294 -0.122621,2.01327c0,2.264929 0.367863,4.02654 1.103588,5.284834c0.735725,1.258294 1.839314,1.761611 3.188144,1.761611c1.103588,0 2.084555,-0.251659 2.820281,-1.006635c0.735725,-0.754976 1.471451,-1.761611 2.207176,-3.271564c0,1.761611 0,2.768247 0.122621,3.523223l6.008424,0c-0.367863,-0.754976 -0.613105,-2.01327 -0.613105,-3.271564c0.122621,-1.258294 0.122621,-2.01327 0.245242,-3.019905zm-5.763183,-2.264929c-0.490484,1.509953 -1.34883,2.264929 -2.575039,2.264929c-0.980967,0 -1.471451,-0.754976 -1.471451,-2.516588c0.122621,-0.754976 0.245242,-1.258294 0.613105,-1.761611c0.367863,-0.503318 0.735725,-0.754976 1.226209,-1.006635c0.490484,-0.251659 1.103588,-0.754976 1.716693,-1.006635c0.613105,-0.503318 1.226209,-1.006635 1.471451,-1.509953c0,2.264929 -0.490484,4.02654 -0.980967,5.536493z"/>
     </g>
     <g stroke="null" id="svg_5">
      <path fill="#ffffff" stroke="null" id="svg_6" d="m19.180033,3.449999l-6.008424,0l-2.575039,27.179148c-0.122621,2.01327 -0.367863,3.271564 -0.735725,4.02654c-0.245242,0.754976 -0.735725,1.006635 -1.34883,1.006635c-0.490484,0 -0.858346,-0.251659 -1.103588,-0.754976c-0.245242,-0.503318 -0.367863,-1.258294 -0.367863,-2.264929c0,-0.754976 0.122621,-2.01327 0.245242,-3.271564c0,0 0,-0.251659 0,-0.503318c0,-0.251659 0,-0.503318 0.122621,-0.754976l-5.640562,0c0,0.251659 -0.122621,0.503318 -0.122621,0.754976c0,0.251659 0,0.251659 0,0.503318c-0.122621,1.761611 -0.245242,3.523223 -0.245242,5.284834c0,7.801422 2.084555,11.827962 6.376287,11.827962c2.207176,0 4.169111,-1.258294 5.763183,-3.523223c1.594072,-2.264929 2.69766,-6.291469 3.188144,-12.33128l2.452418,-27.179148z"/>
     </g>
     <g stroke="null" id="svg_7">
      <polygon fill="#ffffff" stroke="null" id="svg_8" points="37.6957893371582,3.4499990940093994 33.77192306518555,45.22535228729248 39.28986358642578,45.22535228729248 43.2137336730957,3.4499990940093994 "/>
     </g>
     <g stroke="null" id="svg_9">
      <path fill="#ffffff" stroke="null" id="svg_10" d="m56.334167,39.185545l1.226209,-13.086256c0.122621,-1.258294 0.245242,-2.264929 0.245242,-3.271564c0,-3.271564 -0.613105,-5.536493 -1.716693,-6.543128c-1.226209,-1.509953 -2.820281,-2.01327 -4.904836,-2.01327c-1.594072,0 -2.942902,0.251659 -4.04649,1.258294c-1.103588,0.754976 -1.961934,2.01327 -2.69766,3.523223c-0.613105,1.509953 -1.226209,3.774882 -1.471451,6.291469l5.272699,0c0,-0.251659 0,-0.503318 0,-0.754976c0.122621,-1.006635 0.367863,-1.761611 0.735725,-2.264929c0.490484,-0.503318 0.980967,-0.754976 1.716693,-0.754976c0.980967,0 1.594072,0.754976 1.594072,2.516588c-0.122621,1.006635 -0.735725,2.01327 -1.839314,2.516588c-1.103588,0.503318 -2.329797,1.006635 -3.678627,1.761611c-1.34883,0.503318 -2.452418,1.509953 -3.556006,2.768247c-0.980967,1.258294 -1.716693,3.271564 -1.961934,6.039811c0,0.754976 -0.122621,1.258294 -0.122621,2.01327c0,2.264929 0.367863,4.02654 1.103588,5.284834c0.735725,1.258294 1.839314,1.761611 3.188144,1.761611c1.103588,0 2.084555,-0.251659 2.820281,-1.006635c0.735725,-0.754976 1.471451,-1.761611 2.207176,-3.271564c0,1.761611 0,2.768247 0.122621,3.523223l6.008424,0c-0.367863,-0.754976 -0.613105,-2.01327 -0.613105,-3.271564c0.122621,-1.258294 0.245242,-2.01327 0.367863,-3.019905zm-5.885803,-2.264929c-0.490484,1.509953 -1.34883,2.264929 -2.575039,2.264929c-0.980967,0 -1.471451,-0.754976 -1.471451,-2.516588c0.122621,-0.754976 0.245242,-1.258294 0.613105,-1.761611c0.367863,-0.503318 0.735725,-0.754976 1.226209,-1.006635c0.490484,-0.251659 1.103588,-0.754976 1.716693,-1.006635c0.613105,-0.503318 1.226209,-1.006635 1.471451,-1.509953c0,2.264929 -0.367863,4.02654 -0.980967,5.536493z"/>
     </g>
    </g>
    <g stroke="null" id="svg_11">
     <path fill="#ffffff" stroke="null" id="svg_12" d="m75.953511,33.900711l-7.234633,0l-1.839314,12.33128l-1.103588,0l6.008424,-39.510427l1.471451,0l5.763183,39.510427l-1.103588,0l-1.961934,-12.33128zm-3.433385,-24.66256l0,0l-3.433385,22.900948l6.74415,0l-3.310764,-22.900948z"/>
     <path fill="#ffffff" stroke="null" id="svg_13" d="m87.847739,40.695497l0,0c-0.367863,3.774882 -1.594072,6.291469 -3.556006,6.291469c-3.310764,0 -4.414353,-6.291469 -4.414353,-15.099526c0,-8.808057 0.980967,-15.099526 4.414353,-15.099526c1.961934,0 2.942902,2.768247 3.556006,5.788152l0,0l0,-15.602844l0.980967,0l0,39.510427l-0.980967,0l0,-5.788152zm-3.433385,4.278199c2.452418,0 3.433385,-4.781517 3.433385,-13.337915c0,-9.563033 -1.34883,-13.086256 -3.556006,-13.086256c-2.452418,0 -3.310764,4.278199 -3.310764,13.086256c0,7.549763 0.613105,13.337915 3.433385,13.337915z"/>
     <path fill="#ffffff" stroke="null" id="svg_14" d="m94.469268,46.23199l-3.923869,-28.940759l1.103588,0l3.433385,26.172512l0,0l3.310764,-26.172512l1.103588,0l-3.801248,28.940759l-1.226209,0z"/>
     <path fill="#ffffff" stroke="null" id="svg_15" d="m108.693293,42.708768c0,1.258294 0.245242,2.01327 0.613105,2.01327c0.245242,0 0.490484,0 0.613105,-0.251659l0,1.761611c-0.245242,0.251659 -0.613105,0.503318 -1.103588,0.503318c-0.490484,0 -1.226209,-1.006635 -1.226209,-3.019905l0,-1.761611l0,0c-0.367863,3.019905 -1.839314,5.284834 -3.678627,5.284834c-2.452418,0 -3.556006,-3.523223 -3.556006,-8.053081c0,-4.278199 0.858346,-6.794787 2.820281,-8.053081l3.065523,-1.761611c1.226209,-0.754976 1.34883,-1.761611 1.34883,-4.278199c0,-5.284834 -1.226209,-6.291469 -2.69766,-6.291469c-2.329797,0 -3.065523,3.019905 -3.065523,7.046446l-0.980967,0c0,-4.02654 0.735725,-8.808057 3.923869,-8.808057c3.065523,0 3.801248,3.523223 3.801248,7.549763l0,18.119432l0.122621,0zm-0.980967,-13.337915l0,0c-0.367863,1.258294 -0.735725,1.258294 -1.839314,2.01327l-2.084555,1.258294c-1.594072,1.006635 -2.207176,3.019905 -2.207176,6.291469c0,3.774882 0.858346,6.291469 2.575039,6.291469c2.452418,0 3.556006,-3.774882 3.556006,-9.563033l0,-6.291469z"/>
     <path fill="#ffffff" stroke="null" id="svg_16" d="m111.636195,17.291232l0.980967,0l0,4.529858l0,0c0.490484,-2.516588 1.716693,-5.033175 3.556006,-5.033175c1.961934,0 3.556006,2.264929 3.556006,7.801422l0,21.642655l-0.980967,0l0,-20.636019c0,-5.033175 -1.103588,-6.794787 -2.820281,-6.794787c-2.207176,0 -3.310764,4.02654 -3.310764,9.059716l0,18.37109l-0.980967,0l0,-28.940759z"/>
     <path fill="#ffffff" stroke="null" id="svg_17" d="m121.445867,17.291232l1.961934,0l0,-8.556398l0.980967,0l0,8.556398l2.329797,0l0,2.01327l-2.329797,0l0,22.145972c0,2.768247 0.613105,3.271564 1.226209,3.271564c0.490484,0 0.858346,0 1.226209,-0.251659l0,1.761611c-0.490484,0.251659 -1.103588,0.251659 -1.471451,0.251659c-1.471451,0 -2.084555,-1.761611 -2.084555,-4.781517l0,-22.397631l-1.961934,0l0,-2.01327l0.122621,0z"/>
     <path fill="#ffffff" stroke="null" id="svg_18" d="m135.547271,42.708768c0,1.258294 0.245242,2.01327 0.613105,2.01327c0.245242,0 0.490484,0 0.613105,-0.251659l0,1.761611c-0.245242,0.251659 -0.613105,0.503318 -1.103588,0.503318c-0.490484,0 -1.226209,-1.006635 -1.226209,-3.019905l0,-1.761611l0,0c-0.367863,3.019905 -1.839314,5.284834 -3.678627,5.284834c-2.452418,0 -3.556006,-3.523223 -3.556006,-8.053081c0,-4.278199 0.858346,-6.794787 2.820281,-8.053081l3.065523,-1.761611c1.226209,-0.754976 1.34883,-1.761611 1.34883,-4.278199c0,-5.284834 -1.226209,-6.291469 -2.69766,-6.291469c-2.329797,0 -3.065523,3.019905 -3.065523,7.046446l-0.980967,0c0,-4.02654 0.735725,-8.808057 3.923869,-8.808057c3.065523,0 3.801248,3.523223 3.801248,7.549763l0,18.119432l0.122621,0zm-0.980967,-13.337915l0,0c-0.367863,1.258294 -0.735725,1.258294 -1.839314,2.01327l-2.084555,1.258294c-1.594072,1.006635 -2.207176,3.019905 -2.207176,6.291469c0,3.774882 0.858346,6.291469 2.575039,6.291469c2.452418,0 3.556006,-3.774882 3.556006,-9.563033l0,-6.291469z"/>
     <path fill="#ffffff" stroke="null" id="svg_19" d="m147.196257,44.722038c0,7.046446 -0.980967,11.827962 -4.536973,11.827962c-3.556006,0 -3.801248,-5.788152 -3.801248,-7.298104l0.980967,0c0,3.019905 0.858346,5.284834 2.942902,5.284834c2.452418,0 3.433385,-2.768247 3.433385,-8.808057l0,-5.284834l-0.122621,0c-0.367863,2.516588 -1.226209,5.788152 -3.678627,5.788152c-3.310764,0 -4.169111,-6.794787 -4.169111,-14.596209c0,-7.801422 0.735725,-14.847868 4.414353,-14.847868c1.839314,0 2.942902,2.01327 3.556006,5.536493l0,0l0,-5.033175l0.980967,0l0,27.430806zm-4.536973,-0.251659c2.575039,0 3.433385,-5.284834 3.433385,-13.086256c0,-8.30474 -1.103588,-12.582939 -3.310764,-12.582939c-2.207176,0 -3.556006,3.271564 -3.556006,13.086256c0,7.298104 0.858346,12.582939 3.433385,12.582939z"/>
     <path fill="#ffffff" stroke="null" id="svg_20" d="m150.752263,31.635782c0,4.529858 0,13.337915 3.310764,13.337915c2.942902,0 3.433385,-6.039811 3.433385,-8.30474l0.980967,0c0,4.529858 -1.226209,10.066351 -4.414353,10.066351c-3.678627,0 -4.536973,-6.039811 -4.536973,-15.854503c0,-8.808057 1.471451,-14.34455 4.659594,-14.34455c3.310764,0 4.414353,5.536493 4.414353,14.847868l-7.847738,0l0,0.251659zm6.866771,-1.761611c0,-5.284834 -0.367863,-11.324645 -3.310764,-11.324645c-3.065523,0 -3.556006,7.549763 -3.556006,11.324645l6.866771,0z"/>
    </g>
   </g>
  </g>
  <g class="st16" id="Layer_2"/>
 </g>
</svg>