<?xml version="1.0" encoding="utf-8"?>
<!-- Generator: Adobe Illustrator 19.2.1, SVG Export Plug-In . SVG Version: 6.00 Build 0)  -->
<svg version="1.1" xmlns="http://www.w3.org/2000/svg" xmlns:xlink="http://www.w3.org/1999/xlink" x="0px" y="0px"
	 viewBox="0 0 132.9 26.5" style="enable-background:new 0 0 132.9 26.5;" xml:space="preserve">
<style type="text/css">
	.st0{fill:#EDEDED;}
	.st1{fill:#FFFFFF;}
	.st2{fill:#B3B3B3;}
	.st3{fill:#FFFFFF;stroke:#808080;stroke-miterlimit:10;}
	.st4{fill:none;stroke:#808080;stroke-miterlimit:10;}
	.st5{fill:#DDA300;}
	.st6{fill:#0071BC;}
	.st7{fill:#1E120D;}
	.st8{fill:none;stroke:#1E120D;stroke-width:0.8588;stroke-miterlimit:10;}
	.st9{fill-rule:evenodd;clip-rule:evenodd;fill:#1E120D;}
	.st10{opacity:0.2;}
	.st11{fill:#0071BC;stroke:#FFFFFF;stroke-width:5;stroke-miterlimit:10;}
	.st12{fill:#CCCCCC;}
	.st13{fill:#999999;}
	.st14{fill:none;stroke:#CCCCCC;stroke-width:1.1296;stroke-miterlimit:10;}
	.st15{fill:#666666;}
	.st16{display:none;}
	.st17{display:inline;}
	.st18{opacity:0.5;fill:none;stroke:#FF00FF;stroke-width:0.3;stroke-miterlimit:10;}
	.st19{opacity:0.5;fill:none;stroke:#00FFFF;stroke-width:0.3;stroke-miterlimit:10;}
</style>
<g id="Layer_1">
	<g>
		<g>
			<g>
				<path d="M26.5,17.9l1-5.2c0.1-0.5,0.2-0.9,0.2-1.3c0-1.3-0.5-2.2-1.4-2.6C25.4,8.2,24.1,8,22.4,8c-1.3,0-2.4,0.1-3.3,0.5
					c-0.9,0.3-1.6,0.8-2.2,1.4c-0.5,0.6-1,1.5-1.2,2.5H20c0-0.1,0-0.2,0-0.3c0.1-0.4,0.3-0.7,0.6-0.9c0.4-0.2,0.8-0.3,1.4-0.3
					c0.8,0,1.3,0.3,1.3,1c-0.1,0.4-0.6,0.8-1.5,1c-0.9,0.2-1.9,0.4-3,0.7c-1.1,0.2-2,0.6-2.9,1.1c-0.8,0.5-1.4,1.3-1.6,2.4
					c0,0.3-0.1,0.5-0.1,0.8c0,0.9,0.3,1.6,0.9,2.1c0.6,0.5,1.5,0.7,2.6,0.7c0.9,0,1.7-0.1,2.3-0.4c0.6-0.3,1.2-0.7,1.8-1.3
					c0,0.7,0,1.1,0.1,1.4h4.9c-0.3-0.3-0.5-0.8-0.5-1.3C26.4,18.6,26.4,18.3,26.5,17.9z M21.8,17c-0.4,0.6-1.1,0.9-2.1,0.9
					c-0.8,0-1.2-0.3-1.2-1c0.1-0.3,0.2-0.5,0.5-0.7c0.3-0.2,0.6-0.3,1-0.4c0.4-0.1,0.9-0.3,1.4-0.4c0.5-0.2,1-0.4,1.2-0.6
					C22.6,15.7,22.2,16.4,21.8,17z"/>
			</g>
			<g>
				<path d="M15.8,3.7h-4.9L8.8,14.5c-0.1,0.8-0.3,1.3-0.6,1.6c-0.2,0.3-0.6,0.4-1.1,0.4c-0.4,0-0.7-0.1-0.9-0.3
					c-0.2-0.2-0.3-0.5-0.3-0.9C5.9,15,6,14.5,6.1,14c0,0,0-0.1,0-0.2c0-0.1,0-0.2,0.1-0.3H1.6c0,0.1-0.1,0.2-0.1,0.3
					c0,0.1,0,0.1,0,0.2c-0.1,0.7-0.2,1.4-0.2,2.1c0,3.1,1.7,4.7,5.2,4.7c1.8,0,3.4-0.5,4.7-1.4c1.3-0.9,2.2-2.5,2.6-4.9L15.8,3.7z"
					/>
			</g>
			<g>
				<polygon points="30.9,3.7 27.7,20.3 32.2,20.3 35.4,3.7 				"/>
			</g>
			<g>
				<path d="M46.1,17.9l1-5.2c0.1-0.5,0.2-0.9,0.2-1.3c0-1.3-0.5-2.2-1.4-2.6C44.9,8.2,43.6,8,41.9,8c-1.3,0-2.4,0.1-3.3,0.5
					c-0.9,0.3-1.6,0.8-2.2,1.4c-0.5,0.6-1,1.5-1.2,2.5h4.3c0-0.1,0-0.2,0-0.3c0.1-0.4,0.3-0.7,0.6-0.9c0.4-0.2,0.8-0.3,1.4-0.3
					c0.8,0,1.3,0.3,1.3,1c-0.1,0.4-0.6,0.8-1.5,1c-0.9,0.2-1.9,0.4-3,0.7c-1.1,0.2-2,0.6-2.9,1.1c-0.8,0.5-1.4,1.3-1.6,2.4
					c0,0.3-0.1,0.5-0.1,0.8c0,0.9,0.3,1.6,0.9,2.1c0.6,0.5,1.5,0.7,2.6,0.7c0.9,0,1.7-0.1,2.3-0.4c0.6-0.3,1.2-0.7,1.8-1.3
					c0,0.7,0,1.1,0.1,1.4h4.9c-0.3-0.3-0.5-0.8-0.5-1.3C45.9,18.6,46,18.3,46.1,17.9z M41.3,17c-0.4,0.6-1.1,0.9-2.1,0.9
					c-0.8,0-1.2-0.3-1.2-1c0.1-0.3,0.2-0.5,0.5-0.7c0.3-0.2,0.6-0.3,1-0.4c0.4-0.1,0.9-0.3,1.4-0.4c0.5-0.2,1-0.4,1.2-0.6
					C42.1,15.7,41.8,16.4,41.3,17z"/>
			</g>
		</g>
		<g>
			<path d="M62.1,15.8h-5.9l-1.5,4.9h-0.9l4.9-15.7h1.2l4.7,15.7h-0.9L62.1,15.8z M59.3,6L59.3,6l-2.8,9.1H62L59.3,6z"/>
			<path d="M71.8,18.5L71.8,18.5C71.5,20,70.5,21,68.9,21c-2.7,0-3.6-2.5-3.6-6c0-3.5,0.8-6,3.6-6c1.6,0,2.4,1.1,2.9,2.3h0V5.1h0.8
				v15.7h-0.8V18.5z M69,20.2c2,0,2.8-1.9,2.8-5.3c0-3.8-1.1-5.2-2.9-5.2c-2,0-2.7,1.7-2.7,5.2C66.2,17.9,66.7,20.2,69,20.2z"/>
			<path d="M77.2,20.7L74,9.2h0.9l2.8,10.4h0l2.7-10.4h0.9l-3.1,11.5H77.2z"/>
			<path d="M88.8,19.3c0,0.5,0.2,0.8,0.5,0.8c0.2,0,0.4,0,0.5-0.1v0.7c-0.2,0.1-0.5,0.2-0.9,0.2c-0.4,0-1-0.4-1-1.2v-0.7h0
				c-0.3,1.2-1.5,2.1-3,2.1c-2,0-2.9-1.4-2.9-3.2c0-1.7,0.7-2.7,2.3-3.2l2.5-0.7c1-0.3,1.1-0.7,1.1-1.7c0-2.1-1-2.5-2.2-2.5
				c-1.9,0-2.5,1.2-2.5,2.8h-0.8c0-1.6,0.6-3.5,3.2-3.5c2.5,0,3.1,1.4,3.1,3V19.3z M88,14L88,14c-0.3,0.5-0.6,0.5-1.5,0.8l-1.7,0.5
				c-1.3,0.4-1.8,1.2-1.8,2.5c0,1.5,0.7,2.5,2.1,2.5c2,0,2.9-1.5,2.9-3.8V14z"/>
			<path d="M91.2,9.2H92V11h0c0.4-1,1.4-2,2.9-2c1.6,0,2.9,0.9,2.9,3.1v8.6H97v-8.2c0-2-0.9-2.7-2.3-2.7c-1.8,0-2.7,1.6-2.7,3.6v7.3
				h-0.8V9.2z"/>
			<path d="M99.2,9.2h1.6V5.8h0.8v3.4h1.9V10h-1.9v8.8c0,1.1,0.5,1.3,1,1.3c0.4,0,0.7,0,1-0.1v0.7c-0.4,0.1-0.9,0.1-1.2,0.1
				c-1.2,0-1.7-0.7-1.7-1.9V10h-1.6V9.2z"/>
			<path d="M110.7,19.3c0,0.5,0.2,0.8,0.5,0.8c0.2,0,0.4,0,0.5-0.1v0.7c-0.2,0.1-0.5,0.2-0.9,0.2c-0.4,0-1-0.4-1-1.2v-0.7h0
				c-0.3,1.2-1.5,2.1-3,2.1c-2,0-2.9-1.4-2.9-3.2c0-1.7,0.7-2.7,2.3-3.2l2.5-0.7c1-0.3,1.1-0.7,1.1-1.7c0-2.1-1-2.5-2.2-2.5
				c-1.9,0-2.5,1.2-2.5,2.8h-0.8c0-1.6,0.6-3.5,3.2-3.5c2.5,0,3.1,1.4,3.1,3V19.3z M109.9,14L109.9,14c-0.3,0.5-0.6,0.5-1.5,0.8
				l-1.7,0.5c-1.3,0.4-1.8,1.2-1.8,2.5c0,1.5,0.7,2.5,2.1,2.5c2,0,2.9-1.5,2.9-3.8V14z"/>
			<path d="M120.2,20.1c0,2.8-0.8,4.7-3.7,4.7c-2.9,0-3.1-2.3-3.1-2.9h0.8c0,1.2,0.7,2.1,2.4,2.1c2,0,2.8-1.1,2.8-3.5v-2.1h-0.1
				c-0.3,1-1,2.3-3,2.3c-2.7,0-3.4-2.7-3.4-5.8c0-3.1,0.6-5.9,3.6-5.9c1.5,0,2.4,0.8,2.9,2.2h0V9.2h0.8V20.1z M116.5,20
				c2.1,0,2.8-2.1,2.8-5.2c0-3.3-0.9-5-2.7-5c-1.8,0-2.9,1.3-2.9,5.2C113.7,17.9,114.4,20,116.5,20z"/>
			<path d="M123.1,14.9c0,1.8,0,5.3,2.7,5.3c2.4,0,2.8-2.4,2.8-3.3h0.8c0,1.8-1,4-3.6,4c-3,0-3.7-2.4-3.7-6.3c0-3.5,1.2-5.7,3.8-5.7
				c2.7,0,3.6,2.2,3.6,5.9H123.1z M128.7,14.2c0-2.1-0.3-4.5-2.7-4.5c-2.5,0-2.9,3-2.9,4.5H128.7z"/>
		</g>
	</g>
</g>
<g id="Layer_2" class="st16">
</g>
</svg>
